<svg xmlns="http://www.w3.org/2000/svg" viewBox="0 0 480 128" role="img" aria-label="Hexpunk">
  <title>Hexpunk</title>
  <g fill="none" stroke="#0088CC" stroke-width="8" stroke-linejoin="round">
    <path d="M 64 4.36 L 94 21.68 L 94 56.32 L 64 73.64 L 34 56.32 L 34 21.68 Z" />
    <path d="M 34 56.32 L 64 73.64 L 64 108.28 L 34 125.6 L 4 108.28 L 4 73.64 Z" />
    <path d="M 94 56.32 L 124 73.64 L 124 108.28 L 94 125.6 L 64 108.28 L 64 73.64 Z" />
  </g>
  <path fill="#0088CC" d="M196.72 80L190.96 80L190.96 64.88L172.24 64.88L172.24 80L166.48 80L166.48 44.72L172.24 44.72L172.24 64.16L176.56 59.84L190.96 59.84L190.96 44.72L196.72 44.72Z M238.88 80L213.68 80L213.68 54.8L218.72 49.76L213.68 49.76L213.68 44.72L238.88 44.72L238.88 49.76L219.44 49.76L219.44 64.16L223.76 59.84L238.88 59.84L238.88 64.88L219.44 64.88L219.44 74.96L238.88 74.96Z M281.76 80L274.99 80L264.98 65.6L264.26 65.6L254.83 80L247.92 80L260.95 61.64L248.64 44.72L255.55 44.72L264.77 58.33L265.49 58.33L274.27 44.72L281.04 44.72L268.87 61.64Z M323.2 64.88Q323.2 66.9 321.69 68.41Q320.18 69.92 318.16 69.92L298.72 69.92L298.72 80L292.96 80L292.96 54.8L298 49.76L292.96 49.76L292.96 44.72L318.16 44.72Q320.18 44.72 321.69 46.23Q323.2 47.74 323.2 49.76ZM317.44 64.88L317.44 49.76L298.72 49.76L298.72 69.2L303.04 64.88Z M369.32 80L363.56 80L363.56 75.68L359.24 80L344.12 80Q342.03 80 340.56 78.52Q339.08 77.05 339.08 74.96L339.08 44.72L344.84 44.72L344.84 74.96L363.56 74.96L363.56 44.72L369.32 44.72Z M416.52 79.93L406.44 79.93L392.76 50.05L389.88 50.05L392.04 53.65L392.04 79.93L386.28 79.93L386.28 44.65L396.43 44.65L410.04 74.53L412.92 74.53L410.76 70.93L410.76 44.65L416.52 44.65Z M465.52 44.72L449.54 59.62L449.54 60.34L458.68 60.34Q460.77 60.34 462.24 61.82Q463.72 63.3 463.72 65.38L463.72 80L457.96 80L457.96 64.88L439.24 64.88L439.24 80L433.48 80L433.48 44.72L439.24 44.72L439.24 63.94L458.39 44.72Z" />
</svg>
