<svg xmlns="http://www.w3.org/2000/svg" viewBox="0 0 300 220" role="img" aria-label="Hexpunk">
  <title>Hexpunk</title>
  <g transform="translate(86, 8)" fill="none" stroke="#0088CC" stroke-width="6" stroke-linejoin="round">
    <path d="M 64 4.36 L 94 21.68 L 94 56.32 L 64 73.64 L 34 56.32 L 34 21.68 Z" />
    <path d="M 34 56.32 L 64 73.64 L 64 108.28 L 34 125.6 L 4 108.28 L 4 73.64 Z" />
    <path d="M 94 56.32 L 124 73.64 L 124 108.28 L 94 125.6 L 64 108.28 L 64 73.64 Z" />
  </g>
  <path fill="#0088CC" d="M58.56 196L54.72 196L54.72 185.92L42.24 185.92L42.24 196L38.4 196L38.4 172.48L42.24 172.48L42.24 185.44L45.12 182.56L54.72 182.56L54.72 172.48L58.56 172.48Z M91 196L74.2 196L74.2 179.2L77.56 175.84L74.2 175.84L74.2 172.48L91 172.48L91 175.84L78.04 175.84L78.04 185.44L80.92 182.56L91 182.56L91 185.92L78.04 185.92L78.04 192.64L91 192.64Z M123.92 196L119.41 196L112.74 186.4L112.26 186.4L105.97 196L101.36 196L110.05 183.76L101.84 172.48L106.45 172.48L112.59 181.55L113.07 181.55L118.93 172.48L123.44 172.48L115.33 183.76Z M155.88 185.92Q155.88 187.26 154.87 188.27Q153.86 189.28 152.52 189.28L139.56 189.28L139.56 196L135.72 196L135.72 179.2L139.08 175.84L135.72 175.84L135.72 172.48L152.52 172.48Q153.86 172.48 154.87 173.49Q155.88 174.5 155.88 175.84ZM152.04 185.92L152.04 175.84L139.56 175.84L139.56 188.8L142.44 185.92Z M190.96 196L187.12 196L187.12 193.12L184.24 196L174.16 196Q172.77 196 171.78 195.02Q170.8 194.03 170.8 192.64L170.8 172.48L174.64 172.48L174.64 192.64L187.12 192.64L187.12 172.48L190.96 172.48Z M226.76 195.95L220.04 195.95L210.92 176.03L209 176.03L210.44 178.43L210.44 195.95L206.6 195.95L206.6 172.43L213.37 172.43L222.44 192.35L224.36 192.35L222.92 189.95L222.92 172.43L226.76 172.43Z M263.76 172.48L253.1 182.42L253.1 182.9L259.2 182.9Q260.59 182.9 261.58 183.88Q262.56 184.86 262.56 186.26L262.56 196L258.72 196L258.72 185.92L246.24 185.92L246.24 196L242.4 196L242.4 172.48L246.24 172.48L246.24 185.3L259.01 172.48Z" />
</svg>
